<mxfile host="65bd71144e">
    <diagram name="PÃ¡gina-1" id="NV6BH5sB5BCvQYJYY9mn">
        <mxGraphModel dx="863" dy="725" grid="1" gridSize="10" guides="1" tooltips="1" connect="1" arrows="1" fold="1" page="1" pageScale="1" pageWidth="827" pageHeight="1169" math="0" shadow="0">
            <root>
                <mxCell id="0"/>
                <mxCell id="1" parent="0"/>
                <mxCell id="xkJ9vEOYdQlnlvjynkOk-22" style="edgeStyle=orthogonalEdgeStyle;rounded=0;orthogonalLoop=1;jettySize=auto;html=1;entryX=0.5;entryY=0;entryDx=0;entryDy=0;" parent="1" edge="1">
                    <mxGeometry relative="1" as="geometry">
                        <mxPoint x="200" y="680" as="sourcePoint"/>
                    </mxGeometry>
                </mxCell>
                <mxCell id="XIX-rQw25_QY8EkjfiNF-36" style="edgeStyle=orthogonalEdgeStyle;rounded=0;orthogonalLoop=1;jettySize=auto;html=1;entryX=1;entryY=0.5;entryDx=0;entryDy=0;" parent="1" source="XIX-rQw25_QY8EkjfiNF-1" target="XIX-rQw25_QY8EkjfiNF-2" edge="1">
                    <mxGeometry relative="1" as="geometry">
                        <mxPoint x="530" y="820" as="targetPoint"/>
                    </mxGeometry>
                </mxCell>
                <mxCell id="XIX-rQw25_QY8EkjfiNF-1" value="Poliza" style="rounded=0;whiteSpace=wrap;html=1;" parent="1" vertex="1">
                    <mxGeometry x="600" y="800" width="100" height="40" as="geometry"/>
                </mxCell>
                <mxCell id="XIX-rQw25_QY8EkjfiNF-37" style="edgeStyle=orthogonalEdgeStyle;rounded=0;orthogonalLoop=1;jettySize=auto;html=1;entryX=1;entryY=0.5;entryDx=0;entryDy=0;" parent="1" source="XIX-rQw25_QY8EkjfiNF-2" target="XIX-rQw25_QY8EkjfiNF-3" edge="1">
                    <mxGeometry relative="1" as="geometry"/>
                </mxCell>
                <mxCell id="XIX-rQw25_QY8EkjfiNF-2" value="asegura" style="rhombus;whiteSpace=wrap;html=1;" parent="1" vertex="1">
                    <mxGeometry x="380" y="785" width="110" height="70" as="geometry"/>
                </mxCell>
                <mxCell id="XIX-rQw25_QY8EkjfiNF-3" value="ASEGURADO" style="rounded=0;whiteSpace=wrap;html=1;" parent="1" vertex="1">
                    <mxGeometry x="205" y="800" width="100" height="40" as="geometry"/>
                </mxCell>
                <mxCell id="XIX-rQw25_QY8EkjfiNF-9" style="edgeStyle=orthogonalEdgeStyle;rounded=0;orthogonalLoop=1;jettySize=auto;html=1;exitX=1;exitY=0.5;exitDx=0;exitDy=0;entryX=0.5;entryY=1;entryDx=0;entryDy=0;" parent="1" source="XIX-rQw25_QY8EkjfiNF-4" target="XIX-rQw25_QY8EkjfiNF-7" edge="1">
                    <mxGeometry relative="1" as="geometry"/>
                </mxCell>
                <mxCell id="XIX-rQw25_QY8EkjfiNF-10" style="edgeStyle=orthogonalEdgeStyle;rounded=0;orthogonalLoop=1;jettySize=auto;html=1;exitX=0;exitY=0.5;exitDx=0;exitDy=0;entryX=0.5;entryY=1;entryDx=0;entryDy=0;" parent="1" source="XIX-rQw25_QY8EkjfiNF-4" target="XIX-rQw25_QY8EkjfiNF-8" edge="1">
                    <mxGeometry relative="1" as="geometry"/>
                </mxCell>
                <mxCell id="XIX-rQw25_QY8EkjfiNF-4" value="Pertenecen" style="rhombus;whiteSpace=wrap;html=1;" parent="1" vertex="1">
                    <mxGeometry x="200" y="660" width="110" height="70" as="geometry"/>
                </mxCell>
                <mxCell id="XIX-rQw25_QY8EkjfiNF-5" value="" style="endArrow=none;html=1;rounded=0;exitX=0.5;exitY=0;exitDx=0;exitDy=0;entryX=0.5;entryY=1;entryDx=0;entryDy=0;" parent="1" source="XIX-rQw25_QY8EkjfiNF-3" target="XIX-rQw25_QY8EkjfiNF-4" edge="1">
                    <mxGeometry width="50" height="50" relative="1" as="geometry">
                        <mxPoint x="405" y="780" as="sourcePoint"/>
                        <mxPoint x="455" y="730" as="targetPoint"/>
                    </mxGeometry>
                </mxCell>
                <mxCell id="XIX-rQw25_QY8EkjfiNF-7" value="ASC" style="rounded=0;whiteSpace=wrap;html=1;" parent="1" vertex="1">
                    <mxGeometry x="310" y="590" width="100" height="40" as="geometry"/>
                </mxCell>
                <mxCell id="XIX-rQw25_QY8EkjfiNF-22" style="edgeStyle=orthogonalEdgeStyle;rounded=0;orthogonalLoop=1;jettySize=auto;html=1;entryX=0;entryY=0.5;entryDx=0;entryDy=0;" parent="1" source="XIX-rQw25_QY8EkjfiNF-8" target="XIX-rQw25_QY8EkjfiNF-20" edge="1">
                    <mxGeometry relative="1" as="geometry">
                        <Array as="points">
                            <mxPoint x="150" y="195"/>
                        </Array>
                    </mxGeometry>
                </mxCell>
                <mxCell id="XIX-rQw25_QY8EkjfiNF-8" value="APC" style="rounded=0;whiteSpace=wrap;html=1;" parent="1" vertex="1">
                    <mxGeometry x="100" y="590" width="100" height="40" as="geometry"/>
                </mxCell>
                <mxCell id="XIX-rQw25_QY8EkjfiNF-40" style="edgeStyle=orthogonalEdgeStyle;rounded=0;orthogonalLoop=1;jettySize=auto;html=1;exitX=0.5;exitY=1;exitDx=0;exitDy=0;" parent="1" source="XIX-rQw25_QY8EkjfiNF-11" target="XIX-rQw25_QY8EkjfiNF-39" edge="1">
                    <mxGeometry relative="1" as="geometry"/>
                </mxCell>
                <mxCell id="XIX-rQw25_QY8EkjfiNF-11" value="MEDICO" style="rounded=0;whiteSpace=wrap;html=1;" parent="1" vertex="1">
                    <mxGeometry x="410" y="470" width="100" height="40" as="geometry"/>
                </mxCell>
                <mxCell id="XIX-rQw25_QY8EkjfiNF-13" style="edgeStyle=orthogonalEdgeStyle;rounded=0;orthogonalLoop=1;jettySize=auto;html=1;entryX=1;entryY=0.75;entryDx=0;entryDy=0;exitX=0.5;exitY=1;exitDx=0;exitDy=0;" parent="1" source="XIX-rQw25_QY8EkjfiNF-12" target="XIX-rQw25_QY8EkjfiNF-7" edge="1">
                    <mxGeometry relative="1" as="geometry">
                        <mxPoint x="640" y="530" as="sourcePoint"/>
                        <Array as="points">
                            <mxPoint x="635" y="620"/>
                        </Array>
                    </mxGeometry>
                </mxCell>
                <mxCell id="XIX-rQw25_QY8EkjfiNF-14" style="edgeStyle=orthogonalEdgeStyle;rounded=0;orthogonalLoop=1;jettySize=auto;html=1;exitX=0;exitY=0.5;exitDx=0;exitDy=0;entryX=1;entryY=0.5;entryDx=0;entryDy=0;" parent="1" source="XIX-rQw25_QY8EkjfiNF-12" target="XIX-rQw25_QY8EkjfiNF-11" edge="1">
                    <mxGeometry relative="1" as="geometry"/>
                </mxCell>
                <mxCell id="XIX-rQw25_QY8EkjfiNF-26" style="edgeStyle=orthogonalEdgeStyle;rounded=0;orthogonalLoop=1;jettySize=auto;html=1;exitX=0.5;exitY=0;exitDx=0;exitDy=0;entryX=0.5;entryY=1;entryDx=0;entryDy=0;" parent="1" source="XIX-rQw25_QY8EkjfiNF-12" target="XIX-rQw25_QY8EkjfiNF-18" edge="1">
                    <mxGeometry relative="1" as="geometry"/>
                </mxCell>
                <mxCell id="XIX-rQw25_QY8EkjfiNF-12" value="Hospitalizacion S" style="rhombus;whiteSpace=wrap;html=1;" parent="1" vertex="1">
                    <mxGeometry x="580" y="455" width="110" height="70" as="geometry"/>
                </mxCell>
                <mxCell id="XIX-rQw25_QY8EkjfiNF-16" style="edgeStyle=orthogonalEdgeStyle;rounded=0;orthogonalLoop=1;jettySize=auto;html=1;" parent="1" source="XIX-rQw25_QY8EkjfiNF-15" edge="1">
                    <mxGeometry relative="1" as="geometry">
                        <mxPoint x="420" y="470" as="targetPoint"/>
                        <Array as="points">
                            <mxPoint x="420" y="405"/>
                            <mxPoint x="420" y="470"/>
                        </Array>
                    </mxGeometry>
                </mxCell>
                <mxCell id="XIX-rQw25_QY8EkjfiNF-17" style="edgeStyle=orthogonalEdgeStyle;rounded=0;orthogonalLoop=1;jettySize=auto;html=1;exitX=0.5;exitY=1;exitDx=0;exitDy=0;entryX=0;entryY=0.5;entryDx=0;entryDy=0;" parent="1" source="XIX-rQw25_QY8EkjfiNF-15" target="XIX-rQw25_QY8EkjfiNF-11" edge="1">
                    <mxGeometry relative="1" as="geometry"/>
                </mxCell>
                <mxCell id="XIX-rQw25_QY8EkjfiNF-15" value="JEFE" style="rhombus;whiteSpace=wrap;html=1;" parent="1" vertex="1">
                    <mxGeometry x="270" y="370" width="110" height="70" as="geometry"/>
                </mxCell>
                <mxCell id="XIX-rQw25_QY8EkjfiNF-18" value="PROPIO" style="rounded=0;whiteSpace=wrap;html=1;" parent="1" vertex="1">
                    <mxGeometry x="500" y="330" width="100" height="40" as="geometry"/>
                </mxCell>
                <mxCell id="XIX-rQw25_QY8EkjfiNF-28" style="edgeStyle=orthogonalEdgeStyle;rounded=0;orthogonalLoop=1;jettySize=auto;html=1;entryX=0.5;entryY=0;entryDx=0;entryDy=0;" parent="1" source="XIX-rQw25_QY8EkjfiNF-20" target="XIX-rQw25_QY8EkjfiNF-27" edge="1">
                    <mxGeometry relative="1" as="geometry">
                        <mxPoint x="685" y="130" as="targetPoint"/>
                        <Array as="points">
                            <mxPoint x="275" y="90"/>
                            <mxPoint x="680" y="90"/>
                        </Array>
                    </mxGeometry>
                </mxCell>
                <mxCell id="XIX-rQw25_QY8EkjfiNF-32" style="edgeStyle=orthogonalEdgeStyle;rounded=0;orthogonalLoop=1;jettySize=auto;html=1;entryX=0.5;entryY=0;entryDx=0;entryDy=0;" parent="1" source="XIX-rQw25_QY8EkjfiNF-20" target="XIX-rQw25_QY8EkjfiNF-11" edge="1">
                    <mxGeometry relative="1" as="geometry"/>
                </mxCell>
                <mxCell id="XIX-rQw25_QY8EkjfiNF-20" value="Hospitalizacion P" style="rhombus;whiteSpace=wrap;html=1;" parent="1" vertex="1">
                    <mxGeometry x="220" y="160" width="110" height="70" as="geometry"/>
                </mxCell>
                <mxCell id="XIX-rQw25_QY8EkjfiNF-23" value="CONCESIONADO" style="rounded=0;whiteSpace=wrap;html=1;" parent="1" vertex="1">
                    <mxGeometry x="750" y="330" width="100" height="40" as="geometry"/>
                </mxCell>
                <mxCell id="XIX-rQw25_QY8EkjfiNF-25" style="edgeStyle=orthogonalEdgeStyle;rounded=0;orthogonalLoop=1;jettySize=auto;html=1;entryX=0.5;entryY=1;entryDx=0;entryDy=0;" parent="1" source="XIX-rQw25_QY8EkjfiNF-24" target="XIX-rQw25_QY8EkjfiNF-23" edge="1">
                    <mxGeometry relative="1" as="geometry">
                        <mxPoint x="800" y="380" as="targetPoint"/>
                    </mxGeometry>
                </mxCell>
                <mxCell id="XIX-rQw25_QY8EkjfiNF-24" value="asignado" style="rhombus;whiteSpace=wrap;html=1;" parent="1" vertex="1">
                    <mxGeometry x="745" y="500" width="110" height="70" as="geometry"/>
                </mxCell>
                <mxCell id="XIX-rQw25_QY8EkjfiNF-43" style="edgeStyle=orthogonalEdgeStyle;rounded=0;orthogonalLoop=1;jettySize=auto;html=1;exitX=0.5;exitY=1;exitDx=0;exitDy=0;entryX=0.5;entryY=0;entryDx=0;entryDy=0;" parent="1" source="XIX-rQw25_QY8EkjfiNF-27" target="XIX-rQw25_QY8EkjfiNF-29" edge="1">
                    <mxGeometry relative="1" as="geometry"/>
                </mxCell>
                <mxCell id="XIX-rQw25_QY8EkjfiNF-27" value="MEDICO" style="rounded=0;whiteSpace=wrap;html=1;" parent="1" vertex="1">
                    <mxGeometry x="630" y="160" width="100" height="40" as="geometry"/>
                </mxCell>
                <mxCell id="XIX-rQw25_QY8EkjfiNF-30" style="edgeStyle=orthogonalEdgeStyle;rounded=0;orthogonalLoop=1;jettySize=auto;html=1;entryX=0.5;entryY=0;entryDx=0;entryDy=0;" parent="1" source="XIX-rQw25_QY8EkjfiNF-29" target="XIX-rQw25_QY8EkjfiNF-23" edge="1">
                    <mxGeometry relative="1" as="geometry"/>
                </mxCell>
                <mxCell id="XIX-rQw25_QY8EkjfiNF-31" style="edgeStyle=orthogonalEdgeStyle;rounded=0;orthogonalLoop=1;jettySize=auto;html=1;exitX=0;exitY=0.5;exitDx=0;exitDy=0;entryX=0.5;entryY=0;entryDx=0;entryDy=0;" parent="1" source="XIX-rQw25_QY8EkjfiNF-29" target="XIX-rQw25_QY8EkjfiNF-18" edge="1">
                    <mxGeometry relative="1" as="geometry"/>
                </mxCell>
                <mxCell id="XIX-rQw25_QY8EkjfiNF-29" value="Es" style="rhombus;whiteSpace=wrap;html=1;" parent="1" vertex="1">
                    <mxGeometry x="625" y="220" width="110" height="70" as="geometry"/>
                </mxCell>
                <mxCell id="XIX-rQw25_QY8EkjfiNF-41" style="edgeStyle=orthogonalEdgeStyle;rounded=0;orthogonalLoop=1;jettySize=auto;html=1;entryX=1;entryY=0.5;entryDx=0;entryDy=0;" parent="1" source="XIX-rQw25_QY8EkjfiNF-38" target="XIX-rQw25_QY8EkjfiNF-39" edge="1">
                    <mxGeometry relative="1" as="geometry"/>
                </mxCell>
                <mxCell id="XIX-rQw25_QY8EkjfiNF-42" style="edgeStyle=orthogonalEdgeStyle;rounded=0;orthogonalLoop=1;jettySize=auto;html=1;entryX=0.5;entryY=1;entryDx=0;entryDy=0;" parent="1" source="XIX-rQw25_QY8EkjfiNF-38" target="XIX-rQw25_QY8EkjfiNF-24" edge="1">
                    <mxGeometry relative="1" as="geometry"/>
                </mxCell>
                <mxCell id="XIX-rQw25_QY8EkjfiNF-38" value="AREA" style="rounded=0;whiteSpace=wrap;html=1;" parent="1" vertex="1">
                    <mxGeometry x="750" y="660" width="100" height="40" as="geometry"/>
                </mxCell>
                <mxCell id="XIX-rQw25_QY8EkjfiNF-39" value="adscrito" style="rhombus;whiteSpace=wrap;html=1;" parent="1" vertex="1">
                    <mxGeometry x="500" y="645" width="110" height="70" as="geometry"/>
                </mxCell>
            </root>
        </mxGraphModel>
    </diagram>
</mxfile>